<svg width="456" height="456" viewBox="0 0 456 456" fill="none" xmlns="http://www.w3.org/2000/svg">
<path d="M156.86 166.26L256.818 103.112V77.86L156.86 141.02V166.26Z" fill="#0E33F3"/>
<path d="M156.86 221.14L256.818 157.992V137.586L156.86 200.734V221.14Z" fill="#0E33F3"/>
<path d="M200.164 166.26L300.14 103.112V81.894L200.164 145.042V166.26Z" fill="#0E33F3"/>
<path d="M300.14 136.774L200.164 199.922V221.14L300.14 157.992V136.774Z" fill="#0E33F3"/>
<path d="M104.146 270.719C102.292 270.719 100.646 271.083 99.2088 271.812C97.7921 272.521 96.5942 273.552 95.615 274.906C94.6567 276.26 93.9275 277.896 93.4275 279.812C92.9275 281.729 92.6775 283.885 92.6775 286.281C92.6775 289.51 93.0733 292.271 93.865 294.562C94.6775 296.833 95.9275 298.573 97.615 299.781C99.3025 300.969 101.48 301.562 104.146 301.562C106 301.562 107.855 301.354 109.709 300.938C111.584 300.521 113.615 299.927 115.803 299.156V307.281C113.782 308.115 111.792 308.708 109.834 309.062C107.875 309.438 105.678 309.625 103.24 309.625C98.5317 309.625 94.6567 308.656 91.615 306.719C88.5942 304.76 86.3546 302.031 84.8963 298.531C83.4379 295.01 82.7088 290.906 82.7088 286.219C82.7088 282.76 83.1775 279.594 84.115 276.719C85.0525 273.844 86.4275 271.354 88.24 269.25C90.0525 267.146 92.2921 265.521 94.9588 264.375C97.6254 263.229 100.688 262.656 104.146 262.656C106.417 262.656 108.688 262.948 110.959 263.531C113.25 264.094 115.438 264.875 117.521 265.875L114.396 273.75C112.688 272.938 110.969 272.229 109.24 271.625C107.511 271.021 105.813 270.719 104.146 270.719ZM138.475 273.344C143.163 273.344 146.756 274.365 149.256 276.406C151.756 278.448 153.006 281.552 153.006 285.719V309H146.35L144.506 304.25H144.256C143.256 305.5 142.235 306.521 141.194 307.312C140.152 308.104 138.954 308.688 137.6 309.062C136.246 309.438 134.6 309.625 132.663 309.625C130.6 309.625 128.746 309.229 127.1 308.438C125.475 307.646 124.194 306.438 123.256 304.812C122.319 303.167 121.85 301.083 121.85 298.562C121.85 294.854 123.152 292.125 125.756 290.375C128.36 288.604 132.267 287.625 137.475 287.438L143.538 287.25V285.719C143.538 283.885 143.058 282.542 142.1 281.688C141.142 280.833 139.808 280.406 138.1 280.406C136.413 280.406 134.756 280.646 133.131 281.125C131.506 281.604 129.881 282.208 128.256 282.938L125.1 276.5C126.954 275.521 129.027 274.75 131.319 274.188C133.631 273.625 136.017 273.344 138.475 273.344ZM143.538 292.812L139.85 292.938C136.767 293.021 134.621 293.573 133.413 294.594C132.225 295.615 131.631 296.958 131.631 298.625C131.631 300.083 132.058 301.125 132.913 301.75C133.767 302.354 134.881 302.656 136.256 302.656C138.298 302.656 140.017 302.052 141.413 300.844C142.829 299.635 143.538 297.917 143.538 295.688V292.812ZM186.585 298.625C186.585 301 186.023 303.01 184.898 304.656C183.793 306.281 182.137 307.521 179.929 308.375C177.72 309.208 174.97 309.625 171.679 309.625C169.241 309.625 167.148 309.469 165.398 309.156C163.668 308.844 161.918 308.323 160.148 307.594V299.719C162.043 300.573 164.075 301.281 166.241 301.844C168.429 302.385 170.345 302.656 171.991 302.656C173.845 302.656 175.168 302.385 175.96 301.844C176.773 301.281 177.179 300.552 177.179 299.656C177.179 299.073 177.012 298.552 176.679 298.094C176.366 297.615 175.679 297.083 174.616 296.5C173.554 295.896 171.887 295.115 169.616 294.156C167.429 293.24 165.627 292.312 164.21 291.375C162.814 290.438 161.773 289.333 161.085 288.062C160.418 286.771 160.085 285.135 160.085 283.156C160.085 279.927 161.335 277.5 163.835 275.875C166.356 274.229 169.72 273.406 173.929 273.406C176.095 273.406 178.158 273.625 180.116 274.062C182.095 274.5 184.127 275.198 186.21 276.156L183.335 283.031C181.606 282.281 179.97 281.667 178.429 281.188C176.908 280.708 175.356 280.469 173.773 280.469C172.377 280.469 171.325 280.656 170.616 281.031C169.908 281.406 169.554 281.979 169.554 282.75C169.554 283.312 169.731 283.812 170.085 284.25C170.46 284.688 171.168 285.177 172.21 285.719C173.273 286.24 174.825 286.917 176.866 287.75C178.845 288.562 180.564 289.417 182.023 290.312C183.481 291.188 184.606 292.281 185.398 293.594C186.189 294.885 186.585 296.562 186.585 298.625ZM202.914 260.375V270.281C202.914 272.01 202.851 273.656 202.726 275.219C202.622 276.781 202.539 277.885 202.476 278.531H202.976C203.726 277.323 204.612 276.344 205.633 275.594C206.674 274.844 207.82 274.292 209.07 273.938C210.32 273.583 211.664 273.406 213.101 273.406C215.622 273.406 217.82 273.854 219.695 274.75C221.57 275.625 223.028 277.01 224.07 278.906C225.112 280.781 225.633 283.219 225.633 286.219V309H216.101V288.594C216.101 286.094 215.643 284.208 214.726 282.938C213.81 281.667 212.393 281.031 210.476 281.031C208.56 281.031 207.049 281.479 205.945 282.375C204.841 283.25 204.06 284.552 203.601 286.281C203.143 287.99 202.914 290.083 202.914 292.562V309H193.383V260.375H202.914ZM245.086 309H235.555V263.312H261.743V271.25H245.086V283.031H260.586V290.938H245.086V309ZM278.821 309H269.29V260.375H278.821V309ZM319.963 291.469C319.963 294.385 319.567 296.969 318.775 299.219C318.004 301.469 316.869 303.375 315.369 304.938C313.89 306.479 312.098 307.646 309.994 308.438C307.91 309.229 305.556 309.625 302.931 309.625C300.473 309.625 298.213 309.229 296.15 308.438C294.108 307.646 292.327 306.479 290.806 304.938C289.306 303.375 288.14 301.469 287.306 299.219C286.494 296.969 286.088 294.385 286.088 291.469C286.088 287.594 286.775 284.312 288.15 281.625C289.525 278.938 291.483 276.896 294.025 275.5C296.567 274.104 299.598 273.406 303.119 273.406C306.39 273.406 309.285 274.104 311.806 275.5C314.348 276.896 316.338 278.938 317.775 281.625C319.233 284.312 319.963 287.594 319.963 291.469ZM295.806 291.469C295.806 293.76 296.056 295.688 296.556 297.25C297.056 298.812 297.838 299.99 298.9 300.781C299.963 301.573 301.348 301.969 303.056 301.969C304.744 301.969 306.108 301.573 307.15 300.781C308.213 299.99 308.983 298.812 309.463 297.25C309.963 295.688 310.213 293.76 310.213 291.469C310.213 289.156 309.963 287.24 309.463 285.719C308.983 284.177 308.213 283.021 307.15 282.25C306.088 281.479 304.702 281.094 302.994 281.094C300.473 281.094 298.64 281.958 297.494 283.688C296.369 285.417 295.806 288.01 295.806 291.469ZM355.916 309L353.229 296.781C353.083 296.052 352.843 294.979 352.51 293.562C352.177 292.125 351.812 290.594 351.416 288.969C351.041 287.323 350.687 285.802 350.354 284.406C350.041 283.01 349.812 281.99 349.666 281.344H349.385C349.239 281.99 349.01 283.01 348.698 284.406C348.385 285.802 348.031 287.323 347.635 288.969C347.26 290.615 346.906 292.167 346.573 293.625C346.239 295.062 345.989 296.156 345.823 296.906L343.01 309H332.76L322.823 274.062H332.323L336.354 289.531C336.625 290.615 336.885 291.906 337.135 293.406C337.385 294.885 337.604 296.323 337.791 297.719C338 299.094 338.156 300.188 338.26 301H338.51C338.552 300.396 338.635 299.594 338.76 298.594C338.906 297.594 339.062 296.562 339.229 295.5C339.416 294.417 339.583 293.448 339.729 292.594C339.895 291.719 340.02 291.125 340.104 290.812L344.416 274.062H354.916L359.01 290.812C359.156 291.417 359.343 292.375 359.573 293.688C359.823 295 360.041 296.354 360.229 297.75C360.416 299.125 360.52 300.208 360.541 301H360.791C360.875 300.292 361.02 299.24 361.229 297.844C361.437 296.448 361.677 294.99 361.948 293.469C362.239 291.927 362.531 290.615 362.823 289.531L367.01 274.062H376.354L366.291 309H355.916Z" fill="#242D35"/>
</svg>
