<svg width="24" height="22" viewBox="0 0 24 22" fill="none" xmlns="http://www.w3.org/2000/svg">
<g clip-path="url(#clip0_1_27121)">
<path d="M16.0007 2.70417C13.1057 2.70417 10.7507 4.86292 10.7507 7.51667C10.7507 10.1704 13.1057 12.3292 16.0007 12.3292C18.8957 12.3292 21.2507 10.1704 21.2507 7.51667C21.2507 4.86292 18.8957 2.70417 16.0007 2.70417ZM15.8814 7.09835L16.3586 7.23502C16.8623 7.3793 17.2007 7.80125 17.2007 8.28492V8.43333C17.2007 8.96129 16.7928 9.40344 16.2507 9.50918V9.625C16.2507 9.82749 16.0716 9.99167 15.8507 9.99167C15.6298 9.99167 15.4507 9.82749 15.4507 9.625V9.4105C15.065 9.22735 14.8007 8.85821 14.8007 8.43333C14.8007 8.23084 14.9798 8.06667 15.2007 8.06667C15.4216 8.06667 15.6007 8.23084 15.6007 8.43333C15.6007 8.6355 15.7802 8.8 16.0007 8.8C16.2213 8.8 16.4007 8.6355 16.4007 8.43333V8.28497C16.4007 8.12373 16.2879 7.98311 16.12 7.93499L15.6428 7.79831C15.1391 7.65403 14.8007 7.23209 14.8007 6.74841V6.6C14.8007 6.122 15.1352 5.71445 15.6007 5.56307V5.40833C15.6007 5.20584 15.7798 5.04167 16.0007 5.04167C16.2216 5.04167 16.4007 5.20584 16.4007 5.40833V5.56307C16.8663 5.71445 17.2007 6.122 17.2007 6.6C17.2007 6.80249 17.0216 6.96667 16.8007 6.96667C16.5798 6.96667 16.4007 6.80249 16.4007 6.6C16.4007 6.39783 16.2213 6.23333 16.0007 6.23333C15.7802 6.23333 15.6007 6.39783 15.6007 6.6V6.74836C15.6007 6.9096 15.7135 7.05022 15.8814 7.09835ZM19.687 21.2666C18.5903 21.2598 17.7007 20.4402 17.7007 19.4333V13.3084C17.7007 13.0766 17.4686 12.9022 17.221 12.9495C13.5075 13.6592 9.95073 11.0432 9.95073 7.51667C9.95073 3.99112 13.5063 1.37385 17.221 2.08381C17.4686 2.13116 17.7007 1.95672 17.7007 1.72485V1.46667C17.7007 0.656654 16.9844 0 16.1007 0H3.10073C2.21708 0 1.50073 0.656654 1.50073 1.46667V19.4333C1.50073 20.8509 2.75433 22 4.30073 22H19.7007C19.9323 22 20.1178 21.8198 20.0995 21.604C20.0831 21.411 19.8981 21.268 19.687 21.2666ZM5.40073 5.3625H8.80073C9.02163 5.3625 9.20073 5.52668 9.20073 5.72917C9.20073 5.93166 9.02163 6.09583 8.80073 6.09583H5.40073C5.17983 6.09583 5.00073 5.93166 5.00073 5.72917C5.00073 5.52668 5.17983 5.3625 5.40073 5.3625ZM5.40073 9.4875H8.80073C9.02163 9.4875 9.20073 9.65168 9.20073 9.85417C9.20073 10.0567 9.02163 10.2208 8.80073 10.2208H5.40073C5.17983 10.2208 5.00073 10.0567 5.00073 9.85417C5.00073 9.65168 5.17983 9.4875 5.40073 9.4875ZM13.8007 18.1958H5.40073C5.17983 18.1958 5.00073 18.0317 5.00073 17.8292C5.00073 17.6267 5.17983 17.4625 5.40073 17.4625H13.8007C14.0216 17.4625 14.2007 17.6267 14.2007 17.8292C14.2007 18.0317 14.0216 18.1958 13.8007 18.1958ZM13.8007 14.3458H5.40073C5.17983 14.3458 5.00073 14.1817 5.00073 13.9792C5.00073 13.7767 5.17983 13.6125 5.40073 13.6125H13.8007C14.0216 13.6125 14.2007 13.7767 14.2007 13.9792C14.2007 14.1817 14.0216 14.3458 13.8007 14.3458ZM22.4992 18.8824C22.5007 19.8958 21.6047 20.7171 20.5007 20.7171C19.3975 20.7171 18.5022 19.8976 18.5022 18.8852C18.5022 15.4984 18.4996 14.1789 18.502 13.6564C18.5029 13.4545 18.6817 13.2917 18.902 13.2917H20.9007C21.7307 13.2917 22.4132 13.871 22.4927 14.6126L22.4992 18.8824Z" fill="#242D35"/>
</g>
<defs>
<clipPath id="clip0_1_27121">
<rect width="24" height="22" fill="white"/>
</clipPath>
</defs>
</svg>
